<?xml version="1.0" encoding="utf-8"?>
<!-- Generator: Adobe Illustrator 16.0.0, SVG Export Plug-In . SVG Version: 6.00 Build 0)  -->
<!DOCTYPE svg PUBLIC "-//W3C//DTD SVG 1.1//EN" "http://www.w3.org/Graphics/SVG/1.1/DTD/svg11.dtd">
<svg version="1.1" id="Layer_1" xmlns="http://www.w3.org/2000/svg" xmlns:xlink="http://www.w3.org/1999/xlink" x="0px" y="0px"
	 width="2000px" height="2000px" viewBox="0 0 2000 2000" enable-background="new 0 0 2000 2000" xml:space="preserve">
<g enable-background="new    ">
	<path fill="#5D7EBE" d="M94.458,799.298l54.282,205.059c11.875,45.014,22.9,86.692,30.534,128.37h2.544
		c9.33-40.845,22.9-84.19,36.471-127.536l67.004-205.893h62.764l63.612,201.725c15.267,48.348,27.142,90.859,36.471,131.704h2.545
		c6.785-40.845,17.812-83.356,31.382-130.87l58.522-202.559h73.79l-132.313,403.449h-67.853l-62.765-192.556
		c-14.418-45.013-26.293-85.024-36.471-132.537h-1.696c-10.178,48.347-22.9,90.025-37.319,133.371l-66.156,191.722h-67.853
		L18.124,799.298H94.458z"/>
	<path fill="#5D7EBE" d="M912.932,1202.747l-5.938-50.848h-2.544c-22.9,31.676-67.005,60.017-125.528,60.017
		c-83.119,0-125.527-57.517-125.527-115.866c0-97.528,88.209-150.877,246.814-150.043v-8.336c0-33.343-9.33-93.36-93.298-93.36
		c-38.167,0-78.03,11.671-106.868,30.009l-16.963-48.347c33.927-21.673,83.12-35.844,134.857-35.844
		c125.527,0,156.062,84.19,156.062,165.047v150.877c0,35.01,1.696,69.187,6.785,96.694H912.932z M901.906,996.854
		c-81.423-1.667-173.873,12.504-173.873,90.859c0,47.514,32.23,70.021,70.397,70.021c53.435,0,87.36-33.343,99.235-67.52
		c2.544-7.502,4.24-15.838,4.24-23.34V996.854z"/>
	<path fill="#5D7EBE" d="M1180.948,683.432v115.866h106.868v55.85h-106.868v217.563c0,50.014,14.419,78.355,55.979,78.355
		c19.508,0,33.927-2.501,43.257-5.001l3.393,55.016c-14.419,5.835-37.319,10.003-66.157,10.003
		c-34.774,0-62.764-10.837-80.575-30.843c-21.203-21.673-28.837-57.517-28.837-105.029V855.147h-63.612v-55.85h63.612v-96.694
		L1180.948,683.432z"/>
	<path fill="#5D7EBE" d="M1408.255,1014.359c1.696,99.195,66.156,140.04,140.794,140.04c53.435,0,85.665-9.169,113.654-20.839
		l12.722,52.515c-26.293,11.671-71.245,25.008-136.554,25.008c-126.376,0-201.861-81.69-201.861-203.392
		c0-121.702,72.941-217.563,192.532-217.563c134.009,0,169.632,115.866,169.632,190.055c0,15.004-1.696,26.674-2.545,34.176
		H1408.255z M1627.08,961.845c0.848-46.68-19.508-119.201-103.476-119.201c-75.486,0-108.564,68.354-114.502,119.201H1627.08z"/>
	<path fill="#5D7EBE" d="M1791.618,925.167c0-47.513-0.849-88.358-3.393-125.869h65.308l2.545,79.189h3.393
		c18.659-54.182,63.612-88.358,113.653-88.358c8.481,0,14.419,0.833,21.204,2.501v69.187c-7.634-1.668-15.267-2.501-25.445-2.501
		c-52.586,0-89.904,39.178-100.082,94.193c-1.696,10.003-3.393,21.673-3.393,34.177v215.062h-73.79V925.167z"/>
</g>
</svg>
